# This file uses centimeters as units for non-parametric coordinates.

mtllib wall.mtl
g default
v -10.000061 0.000015 200.000000
v 9.999939 0.000015 200.000000
v -10.000061 70.000000 200.000000
v 9.999939 70.579880 200.000000
v -10.000061 170.000000 200.000000
v 9.999939 170.000000 200.000000
v -10.000061 210.000000 200.000000
v 9.999939 210.000000 200.000000
v -10.000061 400.000031 200.000000
v 9.999939 400.000031 200.000000
v -10.000061 400.000031 -200.000000
v 9.999939 400.000031 -200.000000
v -10.000061 210.000000 -200.000000
v 9.999939 210.000000 -200.000000
v -10.000061 170.000000 -200.000000
v 9.999939 170.000000 -200.000000
v -10.000061 70.000000 -200.000000
v 9.999939 70.579880 -200.000000
v -10.000061 0.000015 -200.000000
v 9.999939 0.000015 -200.000000
v -15.000000 172.499725 -200.000000
v -12.500275 170.000000 -200.000000
v -14.267853 170.732147 -200.000000
v -15.000000 172.499725 200.000000
v -14.267853 170.732147 200.000000
v -12.500275 170.000000 200.000000
v -14.267853 209.267853 200.000000
v -15.000000 207.500275 200.000000
v -12.500275 210.000000 200.000000
v -15.000000 207.500275 -200.000000
v -14.267853 209.267853 -200.000000
v -12.500275 210.000000 -200.000000
v -15.000000 0.000015 -200.000000
v -15.000000 0.000015 200.000000
v -15.000000 49.805161 -200.000000
v -15.000000 49.805161 200.000000
v -10.000061 49.805161 200.000000
v 9.999939 50.194839 200.000000
v 9.999939 50.194839 -200.000000
v -10.000061 49.805161 -200.000000
v -20.000000 0.000015 -200.000000
v -20.000000 0.000015 200.000000
v -20.000000 29.890305 -200.000000
v -20.000000 29.890305 200.000000
v -15.000000 29.890305 200.000000
v -10.000061 29.890305 200.000000
v 9.999939 30.109695 200.000000
v 9.999939 30.109695 -200.000000
v -10.000061 29.890305 -200.000000
v -15.000000 29.890305 -200.000000
v -25.000000 0.000015 -200.000000
v -25.000000 0.000015 200.000000
v -15.000000 67.500290 200.000000
v -12.500275 70.000000 200.000000
v -15.000000 67.500290 -200.000000
v -12.500275 70.000000 -200.000000
v -20.000000 47.305435 200.000000
v -17.500275 49.805161 200.000000
v -20.000000 47.305435 -200.000000
v -17.500275 49.805161 -200.000000
v -25.000000 27.390579 200.000000
v -22.500275 29.890305 200.000000
v -25.000000 27.390579 -200.000000
v -22.500275 29.890305 -200.000000
v -25.000000 24.000000 -200.000000
v -25.000000 24.000000 200.000000
v -25.000031 3.000000 -200.000000
v -25.000031 3.000000 200.000000
v -25.999969 24.000000 -200.000000
v -25.999969 24.000000 200.000000
v -25.999969 27.390579 200.000000
v -25.999969 27.390579 -200.000000
v -25.999969 0.000015 -200.000000
v -25.999969 0.000015 200.000000
v -26.000000 3.000000 200.000000
v -26.000000 3.000000 -200.000000
v -22.003174 23.947632 -200.000000
v -20.000000 23.912613 -200.000000
v -15.000000 23.825241 -200.000000
v -10.000061 23.737839 -200.000000
v 9.999939 23.388290 -200.000000
v -22.003174 23.947632 200.000000
v -20.000000 23.912598 200.000000
v -14.999969 23.825241 200.000000
v -10.000061 23.737839 200.000000
v 9.999939 23.388290 200.000000
v -22.290253 27.379791 -200.000000
v -20.000031 27.370682 -200.000000
v -15.000000 27.350784 -200.000000
v -10.000061 27.330887 -200.000000
v 9.999939 27.251297 -200.000000
v -22.290253 27.379791 200.000000
v -20.000000 27.370682 200.000000
v -14.999969 27.350784 200.000000
v -10.000061 27.330887 200.000000
v 9.999939 27.251297 200.000000
v -20.250610 2.996078 -200.000000
v -20.000000 2.995850 -200.000000
v -15.000000 2.991730 -200.000000
v -10.000061 2.987595 -200.000000
v 9.999939 2.971024 -200.000000
v -20.250610 2.996078 200.000000
v -20.000000 2.995850 200.000000
v -14.999969 2.991730 200.000000
v -10.000061 2.987595 200.000000
v 9.999908 2.971039 200.000000
vt 0.210309 0.165997
vt 0.991559 0.166085
vt 0.991555 0.200646
vt 0.210305 0.200558
vt 0.991554 0.207550
vt 0.210304 0.207462
vt 0.210304 0.212345
vt 0.991554 0.212433
vt 0.991532 0.407746
vt 0.210282 0.407658
vt 0.210280 0.420015
vt 0.991530 0.420103
vt 0.991523 0.488463
vt 0.210273 0.488375
vt 0.210281 0.416278
vt 0.991531 0.416366
vt 0.991522 0.492200
vt 0.210272 0.492112
vt 0.209808 0.561058
vt 0.991058 0.561058
vt 0.991058 0.932152
vt 0.209808 0.932152
vt 0.210314 0.120195
vt 0.991564 0.120283
vt 0.991560 0.154297
vt 0.210310 0.154209
vt 0.991560 0.161202
vt 0.210310 0.161113
vt 0.210317 0.099832
vt 0.991566 0.099920
vt 0.991566 0.106542
vt 0.210316 0.106454
vt 0.210321 0.056863
vt 0.991571 0.056951
vt 0.991567 0.097967
vt 0.210317 0.097879
vt 0.210322 0.049051
vt 0.991572 0.049139
vt 0.991572 0.054998
vt 0.210322 0.054910
vt 0.207120 0.981945
vt 0.207120 0.942882
vt 0.988370 0.942882
vt 0.988370 0.981945
vt 0.991531 0.412629
vt 0.210281 0.412541
vt 0.991521 0.500820
vt 0.210271 0.500732
vt 0.210272 0.495849
vt 0.991522 0.495937
vt 0.210315 0.115311
vt 0.991565 0.115400
vt 0.991566 0.108495
vt 0.210316 0.108407
vt 0.047986 0.129415
vt 0.087049 0.130176
vt 0.087049 0.169990
vt 0.047986 0.168858
vt 0.047986 0.090519
vt 0.087049 0.090947
vt 0.087049 0.364170
vt 0.047986 0.364170
vt 0.043103 0.168858
vt 0.047986 0.085520
vt 0.087049 0.085364
vt 0.038221 0.129415
vt 0.038221 0.090519
vt 0.087049 0.442295
vt 0.047986 0.442295
vt 0.038221 0.163976
vt 0.047986 0.078502
vt 0.087049 0.077819
vt 0.038221 0.085559
vt 0.033338 0.129415
vt 0.087049 0.813389
vt 0.047986 0.813389
vt 0.039651 0.440865
vt 0.038221 0.437413
vt 0.038221 0.369053
vt 0.039651 0.365600
vt 0.043103 0.364170
vt 0.043103 0.442295
vt 0.047986 0.037974
vt 0.087049 0.037942
vt 0.038221 0.078673
vt 0.028455 0.085597
vt 0.028455 0.090519
vt 0.028455 0.124533
vt 0.047986 0.032139
vt 0.087049 0.032139
vt 0.038221 0.037982
vt 0.028455 0.078843
vt 0.023982 0.085615
vt 0.023572 0.090519
vt 0.038221 0.032139
vt 0.028455 0.037990
vt 0.024543 0.078912
vt 0.018690 0.085636
vt 0.028455 0.032139
vt 0.027966 0.037991
vt 0.018690 0.079014
vt 0.018690 0.037999
vt 0.016737 0.085636
vt 0.016737 0.079014
vt 0.018690 0.032139
vt 0.016737 0.037999
vt 0.016737 0.032139
vt 0.161517 0.813389
vt 0.122455 0.813389
vt 0.122454 0.442295
vt 0.161517 0.442295
vt 0.122454 0.364170
vt 0.161517 0.364170
vt 0.122454 0.169990
vt 0.161517 0.168858
vt 0.166400 0.364170
vt 0.169852 0.365600
vt 0.171282 0.369053
vt 0.171282 0.437413
vt 0.169852 0.440865
vt 0.166400 0.442295
vt 0.122454 0.130176
vt 0.161517 0.129415
vt 0.122454 0.090947
vt 0.161517 0.090519
vt 0.166400 0.168858
vt 0.122454 0.085364
vt 0.161517 0.085520
vt 0.171282 0.129415
vt 0.171282 0.090519
vt 0.171282 0.163976
vt 0.122454 0.077819
vt 0.161517 0.078502
vt 0.171282 0.085559
vt 0.176166 0.129415
vt 0.122454 0.037942
vt 0.161517 0.037974
vt 0.171282 0.078673
vt 0.181048 0.090519
vt 0.181048 0.085597
vt 0.181048 0.124532
vt 0.122454 0.032139
vt 0.161517 0.032139
vt 0.171282 0.037982
vt 0.181048 0.078843
vt 0.185521 0.085615
vt 0.185931 0.090519
vt 0.171282 0.032139
vt 0.181048 0.037990
vt 0.184960 0.078912
vt 0.190814 0.085636
vt 0.181048 0.032139
vt 0.181537 0.037991
vt 0.190814 0.079014
vt 0.190814 0.037998
vt 0.192767 0.079014
vt 0.192767 0.085636
vt 0.190814 0.032139
vt 0.192767 0.032139
vt 0.192767 0.037998
vn 0.000000 0.000000 1.000000
vn 0.000000 0.000000 1.000000
vn 0.000000 0.000000 1.000000
vn 0.000000 0.000000 1.000000
vn 0.000000 0.000000 1.000000
vn -0.000000 0.000000 1.000000
vn 0.000000 0.000000 1.000000
vn -0.000000 0.000000 1.000000
vn 0.000000 0.000000 1.000000
vn 0.000000 0.000000 1.000000
vn 0.000000 1.000000 0.000000
vn 0.000000 1.000000 0.000000
vn 0.000000 1.000000 0.000000
vn 0.000000 1.000000 0.000000
vn 0.000000 0.000000 -1.000000
vn 0.000000 0.000000 -1.000000
vn 0.000000 0.000000 -1.000000
vn 0.000000 0.000000 -1.000000
vn 0.000000 0.000000 -1.000000
vn 0.000000 0.000000 -1.000000
vn -0.000000 0.000000 -1.000000
vn -0.000000 0.000000 -1.000000
vn -0.000000 0.000000 -1.000000
vn -0.000000 0.000000 -1.000000
vn -1.000000 0.000000 0.000000
vn -1.000000 0.000000 0.000000
vn -1.000000 0.000000 0.000000
vn -1.000000 0.000000 0.000000
vn -1.000000 0.000000 0.000000
vn -1.000000 0.000000 0.000000
vn -1.000000 0.000000 0.000000
vn -1.000000 0.000000 0.000000
vn -0.999802 -0.019909 0.000000
vn -0.999802 -0.019909 0.000000
vn -0.999802 0.019909 0.000000
vn -0.999802 0.019909 0.000000
vn -1.000000 0.000000 0.000000
vn -1.000000 0.000000 0.000000
vn -1.000000 0.000000 0.000000
vn -1.000000 0.000000 0.000000
vn 0.000000 -1.000000 0.000000
vn 0.000000 -1.000000 0.000000
vn -0.169082 -0.985602 0.000000
vn -0.169082 -0.985602 0.000000
vn 0.000000 1.000000 0.000000
vn 0.000000 1.000000 0.000000
vn -0.169082 0.985602 0.000000
vn -0.169082 0.985602 0.000000
vn -0.923881 -0.382680 0.000000
vn -0.923881 -0.382680 0.000000
vn -0.382680 -0.923881 0.000000
vn -0.382680 -0.923881 0.000000
vn -0.923881 0.382680 0.000000
vn -0.923881 0.382680 0.000000
vn -0.382680 0.923881 0.000000
vn -0.382680 0.923881 0.000000
vn -0.000001 0.000000 1.000000
vn -0.000001 0.000000 1.000000
vn -0.000001 0.000000 1.000000
vn -0.000001 0.000000 1.000000
vn -0.000001 0.000000 1.000000
vn -0.000001 0.000000 1.000000
vn 0.000001 0.000000 -1.000000
vn 0.000001 0.000000 -1.000000
vn 0.000001 0.000000 -1.000000
vn 0.000001 0.000000 -1.000000
vn 0.000001 0.000000 -1.000000
vn 0.000001 0.000000 -1.000000
vn 0.000000 0.000000 1.000000
vn 0.000000 0.000000 1.000000
vn 0.000000 0.000000 1.000000
vn 0.000000 1.000000 0.000000
vn 0.000000 1.000000 0.000000
vn 0.000000 1.000000 0.000000
vn 0.000000 1.000000 0.000000
vn 0.000001 0.000000 -1.000000
vn 0.000001 0.000000 -1.000000
vn 0.000001 0.000000 -1.000000
vn 0.000002 0.000000 -1.000000
vn -1.000000 0.000000 0.000000
vn -1.000000 0.000000 0.000000
vn -1.000000 0.000000 0.000000
vn -1.000000 0.000000 0.000000
vn 0.000000 0.000000 1.000000
vn 0.000000 0.000000 1.000000
vn 0.000000 0.000000 1.000000
vn 0.000000 0.000000 1.000000
vn 0.000000 0.000000 1.000000
vn 0.000000 0.000000 -1.000000
vn 0.000000 0.000000 -1.000000
vn 0.000000 0.000000 -1.000000
vn 0.000000 0.000000 -1.000000
vn 0.000000 0.000000 1.000000
vn 0.000000 0.000000 1.000000
vn 0.000000 0.000000 1.000000
vn 0.000000 1.000000 0.000000
vn 0.000000 1.000000 0.000000
vn 0.000000 1.000000 0.000000
vn 0.000000 1.000000 0.000000
vn 0.000000 0.000000 -1.000000
vn 0.000000 0.000000 -1.000000
vn 0.000000 0.000000 -1.000000
vn 0.000000 0.000000 -1.000000
vn -1.000000 0.000000 0.000000
vn -1.000000 0.000000 0.000000
vn -1.000000 0.000000 0.000000
vn -1.000000 0.000000 0.000000
vn 0.000000 0.000000 1.000000
vn 0.000000 0.000000 1.000000
vn 0.000000 0.000000 1.000000
vn 0.000000 0.000000 1.000000
vn 0.000000 0.000000 1.000000
vn 0.000000 0.000000 1.000000
vn 0.000000 0.000000 1.000000
vn 0.000000 0.000000 -1.000000
vn 0.000000 0.000000 -1.000000
vn 0.000000 0.000000 -1.000000
vn 0.000000 0.000000 -1.000000
vn 0.000000 0.000000 -1.000000
vn 0.000000 0.000000 -1.000000
vn 0.000000 0.000000 -1.000000
vn 0.000000 0.000000 -1.000000
vn 0.000000 0.000000 -1.000000
vn 0.000000 0.000000 -1.000000
vn 0.000000 0.000000 -1.000000
vn 0.000000 0.000000 -1.000000
vn 0.000000 0.000000 1.000000
vn 0.000000 0.000000 1.000000
vn 0.000000 0.000000 1.000000
vn 0.000000 0.000000 1.000000
vn 0.000000 1.000000 0.000000
vn 0.000000 1.000000 0.000000
vn 0.000000 1.000000 0.000000
vn 0.000000 1.000000 0.000000
vn 0.000000 0.000000 -1.000000
vn 0.000000 0.000000 -1.000000
vn 0.000000 0.000000 -1.000000
vn 0.000000 0.000000 -1.000000
vn -0.707105 0.707109 0.000000
vn -0.707105 0.707109 0.000000
vn -0.707105 0.707109 0.000000
vn -0.707105 0.707109 0.000000
vn -0.707107 0.707107 0.000000
vn -0.707107 0.707107 0.000000
vn -0.707107 0.707107 0.000000
vn -0.707107 0.707107 0.000000
vn -0.707107 0.707107 0.000000
vn -0.707107 0.707107 0.000000
vn -0.707107 0.707107 0.000000
vn -0.707107 0.707107 0.000000
vn -1.000000 0.000001 0.000000
vn -1.000000 0.000001 0.000000
vn -1.000000 0.000001 0.000000
vn -1.000000 0.000001 0.000000
vn -1.000000 -0.000010 0.000000
vn -1.000000 -0.000010 0.000000
vn -1.000000 -0.000010 0.000000
vn -1.000000 -0.000010 0.000000
vn 0.000000 -1.000000 0.000000
vn 0.000000 -1.000000 0.000000
vn 0.000000 -1.000000 0.000000
vn 0.000000 -1.000000 0.000000
vn 0.000000 0.000000 1.000000
vn 0.000000 0.000000 1.000000
vn 0.000000 0.000000 1.000000
vn 0.000000 0.000000 1.000000
vn 0.000000 1.000000 0.000000
vn 0.000000 1.000000 0.000000
vn 0.000000 1.000000 0.000000
vn 0.000000 1.000000 0.000000
vn 0.000000 0.000000 -1.000000
vn 0.000000 0.000000 -1.000000
vn 0.000000 0.000000 -1.000000
vn 0.000000 0.000000 -1.000000
vn 0.000000 0.000000 1.000000
vn 0.000000 0.000000 1.000000
vn 0.000000 0.000000 1.000000
vn 0.000000 0.000000 1.000000
vn 0.000000 1.000000 0.000000
vn 0.000000 1.000000 0.000000
vn 0.000000 1.000000 0.000000
vn 0.000000 1.000000 0.000000
vn 0.000000 0.000000 -1.000000
vn 0.000000 0.000000 -1.000000
vn 0.000000 0.000000 -1.000000
vn 0.000000 0.000000 -1.000000
vn 0.000000 0.000000 -1.000000
vn 0.000000 0.000000 1.000000
vn 0.000000 0.000000 -1.000000
vn 0.000000 0.000000 1.000000
vn 0.000000 0.000000 -1.000000
vn 0.000000 0.000000 1.000000
vn 0.000000 0.000000 -1.000000
vn 0.000000 0.000000 -1.000000
vn 0.000000 0.000000 -1.000000
vn 0.000000 0.000000 -1.000000
vn 0.000000 0.000000 -1.000000
vn 0.000000 0.000000 -1.000000
vn 0.000000 0.000000 -1.000000
vn 0.000000 0.000000 -1.000000
vn 0.000000 0.000000 -1.000000
vn 0.000000 0.000000 -1.000000
vn 0.000000 0.000000 -1.000000
vn 0.000000 0.000000 -1.000000
vn 0.000000 0.000000 -1.000000
vn 0.000000 0.000000 -1.000000
vn 0.000000 0.000000 -1.000000
vn 0.000000 0.000000 -1.000000
vn 0.000000 0.000000 -1.000000
vn 0.000000 0.000000 -1.000000
vn 0.000000 0.000000 1.000000
vn 0.000000 0.000000 1.000000
vn 0.000000 0.000000 1.000000
vn 0.000000 0.000000 1.000000
vn 0.000000 0.000000 1.000000
vn 0.000000 0.000000 1.000000
vn 0.000004 0.000000 1.000000
vn 0.000004 0.000000 1.000000
vn 0.000004 0.000000 1.000000
vn 0.000004 0.000000 1.000000
vn 0.000000 0.000000 1.000000
vn 0.000000 0.000000 1.000000
vn 0.000000 0.000000 1.000000
vn 0.000000 0.000000 1.000000
vn 0.000000 0.000000 1.000000
vn 0.000000 0.000000 1.000000
vn 0.000000 0.000000 1.000000
vn 0.000000 0.000000 1.000000
vn 0.000000 0.000000 -1.000000
vn 0.000000 0.000000 -1.000000
vn 0.000000 0.000000 1.000000
vn 0.000000 0.000000 1.000000
vn 0.000000 0.000000 1.000000
vn 0.000000 0.000000 1.000000
vn 0.000000 0.000000 1.000000
vn 0.000000 0.000000 1.000000
vn 0.000000 0.000000 1.000000
vn 0.000000 0.000000 1.000000
s 1
g pCube4
usemtl texturedFacets
f 37/55/1 38/56/2 4/57/3 3/58/4
f 3/58/4 4/57/3 6/61/5 5/62/6
f 5/62/6 6/61/5 8/68/7 7/69/8
f 7/69/8 8/68/7 10/75/9 9/76/10
s off
f 9/41/11 10/42/12 12/43/13 11/44/14
s 2
f 11/108/15 12/109/16 14/110/17 13/111/18
f 13/111/18 14/110/17 16/112/19 15/113/20
f 15/113/20 16/112/19 18/114/21 17/115/22
f 17/115/22 18/114/21 39/122/23 40/123/24
s off
f 35/1/25 36/2/26 53/3/27 55/4/28
f 17/7/29 3/8/30 5/9/31 15/10/32
s 3
f 21/11/33 24/12/34 28/13/35 30/14/36
s off
f 13/19/37 7/20/38 9/21/39 11/22/40
s 4
f 15/10/41 5/9/42 26/45/43 22/46/44
s 5
f 7/47/45 13/48/46 32/49/47 29/50/48
s 3
f 21/11/33 23/15/49 25/16/50 24/12/34
s 4
f 23/15/51 22/46/44 26/45/43 25/16/52
s 3
f 28/13/35 27/17/53 31/18/54 30/14/36
s 5
f 27/17/55 29/50/48 32/49/47 31/18/56
s 1
f 27/77/57 28/78/58 24/79/59 25/80/60 26/81/61 5/62/6 7/69/8 29/82/62
s 2
f 13/111/18 15/113/20 22/116/63 23/117/64 21/118/65 30/119/66 31/120/67 32/121/68
s 6
f 37/55/69 3/58/70 54/63/71
s off
f 3/8/72 17/7/73 56/6/74 54/5/75
s 7
f 56/126/76 40/123/77 35/129/78 55/131/79
s off
f 43/23/80 44/24/81 57/25/82 59/26/83
s 6
f 46/59/84 37/55/69 36/66/85 45/67/86
s 1
f 46/59/87 47/60/88 38/56/2 37/55/1
s 2
f 40/123/24 39/122/23 48/124/89 49/125/90
s 7
f 35/129/78 40/123/77 49/125/91 50/130/92
s 8
f 45/67/93 36/66/94 58/74/95
s off
f 36/2/96 35/1/97 60/28/98 58/27/99
s 9
f 60/135/100 50/130/101 43/139/102 59/141/103
s off
f 69/29/104 70/30/105 71/31/106 72/32/107
s 8
f 93/86/108 94/73/109 45/67/93 44/87/110
s 6
f 94/73/111 95/64/112 46/59/84 45/67/86
s 1
f 95/64/113 96/65/114 47/60/88 46/59/87
s 2
f 100/137/115 101/136/116 20/142/117 19/143/118
s 7
f 99/144/119 100/137/120 19/143/121 33/148/122
s 9
f 98/149/123 99/144/124 33/148/125 41/152/126
s 14
f 92/93/127 93/86/128 44/87/129 62/94/130
s off
f 44/24/131 43/23/132 64/51/133 62/52/134
s 15
f 67/155/135 97/153/136 41/152/137 51/158/138
s off
f 53/3/139 54/5/140 56/6/141 55/4/142
f 57/25/143 58/27/144 60/28/145 59/26/146
f 61/53/147 62/52/148 64/51/149 63/54/150
f 67/33/151 68/34/152 66/35/153 65/36/154
f 73/37/155 74/38/156 75/39/157 76/40/158
f 65/36/159 66/35/160 70/30/161 69/29/162
f 66/101/163 61/98/164 71/103/165 70/104/166
f 61/53/167 63/54/168 72/32/169 71/31/170
f 63/151/171 65/154/172 69/156/173 72/157/174
f 52/105/175 68/102/176 75/106/177 74/107/178
f 68/34/179 67/33/180 76/40/181 75/39/182
f 67/155/183 51/158/184 73/159/185 76/160/186
s 7
f 17/115/187 40/123/77 56/126/76
s 6
f 37/55/69 54/63/71 53/70/188 36/66/85
s 9
f 35/129/189 50/130/101 60/135/100
s 8
f 45/67/93 58/74/95 57/88/190 44/87/110
s 15
f 97/153/136 98/149/191 41/152/137
s 14
f 61/98/192 92/93/127 62/94/130
s 15
f 63/151/193 87/146/194 77/150/195 65/154/196
f 87/146/194 88/140/197 78/145/198 77/150/195
s 9
f 88/140/199 89/134/200 79/138/201 78/145/202
s 7
f 89/134/203 90/128/204 80/133/205 79/138/206
s 2
f 90/128/207 91/127/208 81/132/209 80/133/210
s 14
f 68/102/211 102/100/212 82/97/213 66/101/214
f 102/100/212 103/96/215 83/92/216 82/97/213
s 8
f 103/96/217 104/91/218 84/85/219 83/92/220
s 6
f 104/91/221 105/83/222 85/71/223 84/85/224
s 1
f 105/83/225 106/84/226 86/72/227 85/71/228
s 15
f 64/147/229 87/146/194 63/151/193
f 43/139/230 88/140/197 87/146/194 64/147/229
s 9
f 43/139/102 50/130/101 89/134/200 88/140/199
s 7
f 50/130/92 49/125/91 90/128/204 89/134/203
s 2
f 49/125/90 48/124/89 91/127/208 90/128/207
s 14
f 66/101/214 82/97/213 92/93/127 61/98/192
f 82/97/213 83/92/216 93/86/128 92/93/127
s 8
f 83/92/220 84/85/219 94/73/109 93/86/108
s 6
f 84/85/224 85/71/223 95/64/112 94/73/111
s 1
f 85/71/228 86/72/227 96/65/114 95/64/113
s 15
f 65/154/196 77/150/195 97/153/136 67/155/135
f 77/150/195 78/145/198 98/149/191 97/153/136
s 9
f 78/145/202 79/138/201 99/144/124 98/149/123
s 7
f 79/138/206 80/133/205 100/137/120 99/144/119
s 2
f 80/133/210 81/132/209 101/136/116 100/137/115
s 14
f 42/99/231 102/100/212 68/102/211 52/105/232
f 42/99/231 103/96/215 102/100/212
s 8
f 34/95/233 104/91/218 103/96/217 42/99/234
s 6
f 1/89/235 105/83/222 104/91/221 34/95/236
s 1
f 1/89/237 2/90/238 106/84/226 105/83/225
