# This file uses centimeters as units for non-parametric coordinates.

mtllib thirdgenerationframe.mtl
g default
v -1047.061035 207.478180 10.000000
v -817.718140 207.478180 10.000000
v -1047.061035 340.163574 10.000000
v -817.718140 340.163574 10.000000
v -1058.878052 352.616211 -10.000000
v -806.287292 352.616211 -10.000000
v -1058.878052 193.631943 -10.000000
v -806.287292 193.631943 -10.000000
v -1043.321045 211.046661 7.905374
v -1036.517334 218.120468 7.905374
v -827.781555 218.120468 7.905374
v -821.458252 211.046661 7.905374
v -1036.517334 330.387329 7.905374
v -827.781555 330.387329 7.905374
v -1043.321045 336.595032 7.905374
v -821.458252 336.595032 7.905374
v -1030.275635 221.477478 6.509899
v -834.023193 221.477478 6.509899
v -1030.275635 327.030243 6.509899
v -834.023193 327.030243 6.509899
v -1053.163452 199.346802 10.000000
v -1057.204224 195.305801 8.326150
v -1058.878052 193.631943 4.285118
v -812.002197 199.346802 10.000000
v -807.961121 195.305801 8.326150
v -806.287292 193.631943 4.285118
v -1053.163452 346.901276 10.000000
v -1057.204224 350.942291 8.326150
v -1058.878052 352.616211 4.285118
v -812.002197 346.901276 10.000000
v -807.961121 350.942291 8.326150
v -806.287292 352.616211 4.285118
v -973.761719 195.474167 10.735983
v -889.777588 195.474167 10.735983
v -973.761719 207.211166 10.735983
v -889.777588 207.211166 10.735983
v -973.761719 207.211166 7.975798
v -889.777588 207.211166 7.975798
v -973.761719 195.474167 7.975798
v -889.777588 195.474167 7.975798
vt 0.611938 0.059022
vt 0.070301 0.058973
vt 0.070400 0.010846
vt 0.611848 0.010904
vt 0.075934 0.073707
vt 0.606302 0.073758
vt 0.611797 0.980739
vt 0.070344 0.980724
vt 0.070251 0.932606
vt 0.611893 0.932612
vt 0.606258 0.917878
vt 0.075885 0.917870
vt 0.701410 0.018933
vt 0.701410 0.008614
vt 0.745286 0.008614
vt 0.745286 0.018933
vt 0.701409 0.343208
vt 0.701410 0.332890
vt 0.745286 0.332890
vt 0.745286 0.343208
vt 0.669160 0.068141
vt 0.669115 0.923501
vt 0.620993 0.923527
vt 0.621037 0.068110
vt 0.061200 0.068058
vt 0.061150 0.923518
vt 0.013027 0.923486
vt 0.013078 0.068083
vt 0.755605 0.018933
vt 0.755604 0.332890
vt 0.691091 0.332890
vt 0.691092 0.018933
vt 0.155162 0.846514
vt 0.131336 0.869456
vt 0.131362 0.120833
vt 0.155188 0.142156
vt 0.534625 0.846531
vt 0.555529 0.869475
vt 0.117805 0.883043
vt 0.117845 0.107245
vt 0.555572 0.120842
vt 0.534664 0.142164
vt 0.167276 0.825259
vt 0.167297 0.163411
vt 0.569059 0.883040
vt 0.522513 0.825292
vt 0.090374 0.903624
vt 0.090414 0.087967
vt 0.569090 0.107278
vt 0.522552 0.163402
vt 0.591778 0.903620
vt 0.591812 0.088004
vn 0.000000 0.000000 1.000000
vn 0.000000 0.000000 1.000000
vn 0.000000 0.000000 1.000000
vn 0.000000 0.000000 1.000000
vn 0.000000 0.000000 1.000000
vn 0.000000 0.000000 1.000000
vn 0.000000 0.000000 1.000000
vn 0.000000 0.000000 1.000000
vn 0.000000 0.000000 1.000000
vn 0.000000 0.000000 1.000000
vn 0.000000 0.506216 0.862407
vn 0.000000 0.506216 0.862407
vn 0.000000 0.506216 0.862407
vn 0.000000 0.506216 0.862407
vn -0.488633 0.000000 0.872490
vn -0.035758 0.000000 0.999361
vn -0.039606 0.000000 0.999215
vn -0.488632 0.000000 0.872490
vn 0.488645 0.000000 0.872483
vn 0.488645 0.000000 0.872483
vn 0.038603 0.000000 0.999255
vn 0.034865 0.000000 0.999392
vn 0.000000 -0.506209 0.862411
vn 0.000000 -0.506209 0.862411
vn 0.000000 -0.506209 0.862411
vn 0.000000 -0.506209 0.862411
vn 0.000000 0.383847 0.923397
vn 0.000000 0.383847 0.923397
vn 0.000000 0.383847 0.923397
vn 0.000000 0.383847 0.923397
vn -0.218188 0.000000 0.975907
vn -0.218188 0.000000 0.975907
vn -0.218188 0.000000 0.975907
vn -0.218188 0.000000 0.975907
vn 0.218186 0.000000 0.975907
vn 0.218186 0.000000 0.975907
vn 0.218186 0.000000 0.975907
vn 0.218186 0.000000 0.975907
vn 0.000000 -0.383839 0.923400
vn 0.000000 -0.383839 0.923400
vn 0.000000 -0.383839 0.923400
vn 0.000000 -0.383839 0.923400
vn -0.095727 -0.154832 0.983292
vn 0.095728 -0.154839 0.983291
vn 0.102016 0.165009 0.981002
vn 0.000000 1.000000 0.000000
vn 0.000000 1.000000 0.000000
vn 0.000000 0.997312 0.073277
vn 0.000000 0.997312 0.073277
vn 0.000000 -0.997312 0.073275
vn 0.000000 -0.997312 0.073275
vn 0.000000 -1.000000 0.000000
vn 0.000000 -1.000000 0.000000
vn 0.997329 0.000000 0.073037
vn 0.997329 0.000000 0.073038
vn 1.000000 0.000000 0.000000
vn 1.000000 0.000000 0.000000
vn -1.000000 0.000000 0.000000
vn -1.000000 0.000000 0.000000
vn -0.997329 0.000000 0.073038
vn -0.997329 0.000000 0.073037
vn 0.000000 -0.382686 0.923879
vn 0.000000 -0.382686 0.923879
vn 0.000000 -0.923879 0.382685
vn 0.000000 -0.923879 0.382685
vn 0.382680 0.000000 0.923881
vn 0.382680 0.000000 0.923881
vn 0.923881 0.000000 0.382679
vn 0.923881 0.000000 0.382679
vn -0.101769 0.164606 0.981095
vn -0.382704 0.000000 0.923871
vn -0.382704 0.000000 0.923871
vn -0.923881 0.000000 0.382679
vn -0.923881 0.000000 0.382679
vn 0.000000 0.923876 0.382693
vn 0.000000 0.923876 0.382693
vn 0.000000 0.382687 0.923878
vn 0.000000 0.382687 0.923878
vn 0.000000 0.000000 1.000000
vn 0.000000 0.000000 1.000000
vn 0.000000 0.000000 1.000000
vn 0.000000 0.000000 1.000000
vn 0.000000 0.000000 1.000000
vn 0.000000 0.000000 1.000000
vn 0.000000 1.000000 0.000000
vn 0.000000 1.000000 0.000000
vn 0.000000 1.000000 0.000000
vn 0.000000 1.000000 0.000000
vn 0.000000 -1.000000 0.000000
vn 0.000000 -1.000000 0.000000
vn 0.000000 -1.000000 0.000000
vn 0.000000 -1.000000 0.000000
vn 1.000000 0.000000 0.000000
vn 1.000000 0.000000 0.000000
vn 1.000000 0.000000 0.000000
vn 1.000000 0.000000 0.000000
vn -1.000000 0.000000 0.000000
vn -1.000000 0.000000 0.000000
vn -1.000000 0.000000 0.000000
vn -1.000000 0.000000 0.000000
s 1
g pCube11
usemtl texturedFacets14
f 10/33/1 9/34/2 12/35/3 11/36/4
s off
f 19/46/5 17/43/6 18/44/7 20/50/8
s 1
f 13/37/9 15/38/10 9/34/2 10/33/1
s off
f 9/34/11 1/39/12 2/40/13 12/35/14
s 2
f 12/35/15 2/40/16 4/49/17 16/41/18
f 9/34/19 15/38/20 3/45/21 1/39/22
s off
f 15/38/23 16/41/24 4/49/25 3/45/26
f 17/43/27 10/33/28 11/36/29 18/44/30
f 18/44/31 11/36/32 14/42/33 20/50/34
f 17/43/35 19/46/36 13/37/37 10/33/38
f 19/46/39 20/50/40 14/42/41 13/37/42
s 2
f 1/39/22 21/47/43 24/48/44 2/40/16
f 4/49/17 2/40/16 24/48/44 30/52/45
s 4
f 6/21/46 5/22/47 29/23/48 32/24/49
s 5
f 26/25/50 23/26/51 7/27/52 8/28/53
s 6
f 32/1/54 26/2/55 8/3/56 6/4/57
s 7
f 5/7/58 7/8/59 23/9/60 29/10/61
s 2
f 21/47/43 22/12/62 25/5/63 24/48/44
s 5
f 22/12/64 23/26/51 26/25/50 25/5/65
s 2
f 24/48/44 25/5/66 31/6/67 30/52/45
s 6
f 25/5/68 26/2/55 32/1/54 31/6/69
s 2
f 27/51/70 28/11/71 22/12/72 21/47/43
s 7
f 28/11/73 29/10/61 23/9/60 22/12/74
s 4
f 28/11/75 31/6/76 32/24/49 29/23/48
s 2
f 30/52/45 31/6/77 28/11/78 27/51/70
f 27/51/70 21/47/43 1/39/22 3/45/21
s 1
f 15/38/10 13/37/9 14/42/79 16/41/80
s 2
f 30/52/45 27/51/70 3/45/21 4/49/17
s 1
f 12/35/3 16/41/80 14/42/79 11/36/4
s off
f 33/18/81 34/13/82 36/16/83 35/19/84
f 35/19/85 36/16/86 38/29/87 37/30/88
f 39/31/89 40/32/90 34/13/91 33/18/92
f 34/13/93 40/14/94 38/15/95 36/16/96
f 39/17/97 33/18/98 35/19/99 37/20/100
