# This file uses centimeters as units for non-parametric coordinates.

mtllib floor.mtl
g default
v -390.866302 -29.117855 200.000000
v 9.133728 -29.117855 200.000000
v -390.866302 -9.117855 200.000000
v 9.133728 -9.117855 200.000000
v -390.866302 -9.117855 -200.000000
v 9.133728 -9.117855 -200.000000
v -390.866302 -29.117855 -200.000000
v 9.133728 -29.117855 -200.000000
vt 0.210208 0.948810
vt 0.991458 0.948810
vt 0.991458 0.987872
vt 0.210208 0.987872
vt 0.210207 0.918312
vt 0.991458 0.918312
vt 0.991458 0.957375
vt 0.210207 0.957375
vt 0.029992 0.034580
vt 0.854012 0.034580
vt 0.854012 0.858600
vt 0.029992 0.858600
vt 0.029158 0.858404
vt 0.029158 0.034385
vt 0.853178 0.034385
vt 0.853178 0.858404
vt 0.901609 0.897237
vt 0.901609 0.115987
vt 0.940671 0.115987
vt 0.940671 0.897237
vt 0.952107 0.894008
vt 0.952107 0.112758
vt 0.991169 0.112758
vt 0.991170 0.894008
vn 0.000000 0.000000 1.000000
vn 0.000000 0.000000 1.000000
vn 0.000000 0.000000 1.000000
vn 0.000000 0.000000 1.000000
vn 0.000000 1.000000 0.000000
vn 0.000000 1.000000 0.000000
vn 0.000000 1.000000 0.000000
vn 0.000000 1.000000 0.000000
vn 0.000000 0.000000 -1.000000
vn 0.000000 0.000000 -1.000000
vn 0.000000 0.000000 -1.000000
vn 0.000000 0.000000 -1.000000
vn 0.000000 -1.000000 0.000000
vn 0.000000 -1.000000 0.000000
vn 0.000000 -1.000000 0.000000
vn 0.000000 -1.000000 0.000000
vn 1.000000 0.000000 0.000000
vn 1.000000 0.000000 0.000000
vn 1.000000 0.000000 0.000000
vn 1.000000 0.000000 0.000000
vn -1.000000 0.000000 0.000000
vn -1.000000 0.000000 0.000000
vn -1.000000 0.000000 0.000000
vn -1.000000 0.000000 0.000000
s off
g pCube3
usemtl lambert7SG
f 1/17/1 2/18/2 4/19/3 3/20/4
f 3/9/5 4/10/6 6/11/7 5/12/8
f 5/21/9 6/22/10 8/23/11 7/24/12
f 7/13/13 8/14/14 2/15/15 1/16/16
f 2/1/17 8/2/18 6/3/19 4/4/20
f 7/5/21 1/6/22 3/7/23 5/8/24
