# This file uses centimeters as units for non-parametric coordinates.

mtllib frameNS3.mtl
g default
v -63.492260 -92.912933 10.000000
v 65.491615 -92.912933 10.000000
v -63.492260 90.996506 10.000000
v 65.491615 90.996506 10.000000
v -75.000000 100.000000 -10.000000
v 75.000000 100.000000 -10.000000
v -75.000000 -100.000000 -10.000000
v 75.000000 -100.000000 -10.000000
v -60.004963 -87.940643 6.521384
v 62.004318 -87.940643 6.521384
v 62.004318 86.024208 6.521384
v -60.004963 86.024208 6.521384
v -50.776402 -74.782242 5.401926
v 52.775757 -74.782242 5.401926
v 52.775757 72.865814 5.401926
v -50.776402 72.865814 5.401926
v -50.776402 -74.782242 2.648244
v 52.775757 -74.782242 2.648244
v 52.775757 72.865814 2.648244
v -50.776402 72.865814 2.648244
v -75.000000 -100.000000 8.000200
v -73.000198 -98.000198 10.000000
v 75.000000 -100.000000 8.000200
v 73.000198 -98.000198 10.000000
v -75.000000 100.000000 8.000200
v -73.000198 98.000198 10.000000
v 75.000000 100.000000 8.000200
v 73.000198 98.000198 10.000000
vt 0.511760 0.837138
vt 0.358524 0.850200
vt 0.353212 0.846235
vt 0.515804 0.842405
vt 0.907498 0.868534
vt 0.078402 0.824359
vt 0.083715 0.828324
vt 0.903454 0.863267
vt 0.476729 0.812663
vt 0.053927 0.789315
vt 0.382991 0.885252
vt 0.942524 0.893002
vt 0.477358 0.004225
vt 0.966889 0.004225
vt 0.966889 0.702213
vt 0.477358 0.702213
vt 0.907450 0.837101
vt 0.903485 0.842412
vt 0.942502 0.812634
vt 0.957220 0.800453
vt 0.078478 0.850248
vt 0.083745 0.846204
vt 0.054010 0.885274
vt 0.041860 0.900061
vt 0.511837 0.868610
vt 0.515802 0.863297
vt 0.476793 0.893085
vt 0.462079 0.905270
vt 0.358487 0.824282
vt 0.353219 0.828326
vt 0.382961 0.789251
vt 0.395114 0.774462
vt 0.443279 0.941306
vt 0.975930 0.930487
vt 0.019611 0.761052
vt 0.420416 0.750331
vt 0.448444 0.780498
vt 0.981136 0.769842
vt 0.011237 0.929317
vt 0.016654 0.924012
vt 0.415021 0.923900
vt 0.041742 0.774601
vt 0.413210 0.761018
vt 0.957312 0.905152
vt 0.448603 0.930660
vt 0.420135 0.976989
vt 0.011593 0.977059
vt 0.420443 0.929207
vt 0.011046 0.750478
vt 0.011357 0.702696
vt 0.420054 0.702589
vt 0.443128 0.769861
vt 0.443263 0.722092
vt 0.981018 0.722087
vt 0.981250 0.941122
vt 0.981128 0.988891
vt 0.443409 0.989061
vt 0.017983 0.918712
vt 0.395172 0.899970
vt 0.414840 0.918567
vt 0.975848 0.780471
vt 0.461940 0.800510
vn 0.000000 0.000000 1.000000
vn 0.000000 0.000000 1.000000
vn 0.000000 0.000000 1.000000
vn 0.000000 0.000000 1.000000
vn 0.000000 0.573242 0.819386
vn 0.000000 0.573242 0.819386
vn 0.000000 0.573242 0.819386
vn 0.000000 0.573242 0.819386
vn -0.706225 0.000000 0.707987
vn -0.706225 0.000000 0.707987
vn -0.706225 0.000000 0.707987
vn -0.706225 0.000000 0.707987
vn 0.000000 -0.573242 0.819386
vn 0.000000 -0.573242 0.819386
vn 0.000000 -0.573242 0.819386
vn 0.000000 -0.573242 0.819386
vn 0.706225 0.000000 0.707987
vn 0.706225 0.000000 0.707987
vn 0.706225 0.000000 0.707987
vn 0.706225 0.000000 0.707987
vn 0.000000 0.084769 0.996401
vn 0.000000 0.084769 0.996401
vn 0.000000 0.084769 0.996401
vn 0.000000 0.084769 0.996401
vn -0.120421 0.000000 0.992723
vn -0.120421 0.000000 0.992723
vn -0.120421 0.000000 0.992723
vn -0.120421 0.000000 0.992723
vn 0.000000 -0.084769 0.996401
vn 0.000000 -0.084769 0.996401
vn 0.000000 -0.084769 0.996401
vn 0.000000 -0.084769 0.996401
vn 0.120421 0.000000 0.992723
vn 0.120421 0.000000 0.992723
vn 0.120421 0.000000 0.992723
vn 0.120421 0.000000 0.992723
vn 0.000000 1.000000 0.000000
vn 0.000000 1.000000 0.000000
vn 0.000000 1.000000 0.000000
vn 0.000000 1.000000 0.000000
vn -1.000000 0.000000 0.000000
vn -1.000000 0.000000 0.000000
vn -1.000000 0.000000 0.000000
vn -1.000000 0.000000 0.000000
vn 0.000000 -1.000000 0.000000
vn 0.000000 -1.000000 0.000000
vn 0.000000 -1.000000 0.000000
vn 0.000000 -1.000000 0.000000
vn 1.000000 0.000000 0.000000
vn 1.000000 0.000000 0.000000
vn 1.000000 0.000000 0.000000
vn 1.000000 0.000000 0.000000
vn -0.707106 0.000000 0.707107
vn -0.707106 0.000000 0.707107
vn -0.707106 0.000000 0.707107
vn -0.707106 0.000000 0.707107
vn 0.000000 -0.707106 0.707108
vn 0.000000 -0.707106 0.707108
vn 0.000000 -0.707106 0.707108
vn 0.000000 -0.707106 0.707108
vn 0.707106 0.000000 0.707107
vn 0.707106 0.000000 0.707107
vn 0.707106 0.000000 0.707107
vn 0.707106 0.000000 0.707107
vn 0.000000 0.707106 0.707108
vn 0.000000 0.707106 0.707108
vn 0.000000 0.707106 0.707108
vn 0.000000 0.707106 0.707108
vn 0.000000 0.000000 1.000000
vn 0.000000 0.000000 1.000000
vn 0.000000 0.000000 1.000000
vn 0.000000 0.000000 1.000000
vn 0.000000 0.000000 1.000000
vn 0.000000 0.000000 1.000000
vn 0.000000 1.000000 0.000000
vn 0.000000 1.000000 0.000000
vn 0.000000 1.000000 0.000000
vn 0.000000 1.000000 0.000000
vn 0.000000 -1.000000 0.000000
vn 0.000000 -1.000000 0.000000
vn 0.000000 -1.000000 0.000000
vn 0.000000 -1.000000 0.000000
vn 1.000000 0.000000 0.000000
vn 1.000000 0.000000 0.000000
vn 1.000000 0.000000 0.000000
vn 1.000000 0.000000 0.000000
vn -1.000000 0.000000 0.000000
vn -1.000000 0.000000 0.000000
vn -1.000000 0.000000 0.000000
vn -1.000000 0.000000 0.000000
vn 0.000000 0.000000 1.000000
vn 0.000000 0.000000 1.000000
s off
g goldFrame
usemtl lambert6SG
f 17/13/1 18/14/2 19/15/3 20/16/4
f 1/42/5 2/32/6 10/31/7 9/10/8
f 2/62/9 4/20/10 11/19/11 10/9/12
f 4/59/13 3/24/14 12/23/15 11/11/16
f 3/44/17 1/28/18 9/27/19 12/12/20
f 9/10/21 10/31/22 14/29/23 13/6/24
f 10/9/25 11/19/26 15/17/27 14/1/28
f 11/11/29 12/23/30 16/21/31 15/2/32
f 12/12/33 9/27/34 13/25/35 16/5/36
f 13/6/37 14/29/38 18/30/39 17/7/40
f 14/1/41 15/17/42 19/18/43 18/4/44
f 15/2/45 16/21/46 20/22/47 19/3/48
f 16/5/49 13/25/50 17/26/51 20/8/52
f 21/33/53 22/45/54 26/34/55 25/55/56
f 22/35/57 21/49/58 23/36/59 24/43/60
f 24/37/61 23/52/62 27/38/63 28/61/64
f 25/39/65 26/40/66 28/41/67 27/48/68
s 1
f 2/32/69 1/42/70 22/35/71 24/43/72
f 3/44/73 26/34/74 22/45/71 1/28/70
s off
f 6/46/75 5/47/76 25/39/77 27/48/78
f 23/36/79 21/49/80 7/50/81 8/51/82
f 27/38/83 23/52/84 8/53/85 6/54/86
f 21/33/87 25/55/88 5/56/89 7/57/90
s 1
f 26/58/74 3/24/73 4/59/91 28/60/92
f 28/61/92 4/20/91 2/62/69 24/37/72
