# This file uses centimeters as units for non-parametric coordinates.

mtllib NSPaintingFinal1.mtl
g default
v -22.630737 -99.669014 10.668431
v 25.286087 -99.669014 10.668431
v -22.630737 -87.517509 10.668431
v 25.286087 -87.517509 10.668431
v -22.630737 -87.517509 4.969954
v 25.286087 -87.517509 4.969954
v -22.630737 -99.669014 4.969954
v 25.286087 -99.669014 4.969954
v -63.492260 -92.912933 10.000000
v 65.491615 -92.912933 10.000000
v -63.492260 90.996506 10.000000
v 65.491615 90.996506 10.000000
v -75.000000 100.000000 -10.000000
v 75.000000 100.000000 -10.000000
v -75.000000 -100.000000 -10.000000
v 75.000000 -100.000000 -10.000000
v -60.004963 -87.940643 6.521384
v 62.004318 -87.940643 6.521384
v 62.004318 86.024208 6.521384
v -60.004963 86.024208 6.521384
v -50.776402 -74.782242 5.401926
v 52.775757 -74.782242 5.401926
v 52.775757 72.865814 5.401926
v -50.776402 72.865814 5.401926
v -50.776402 -74.782242 2.648244
v 52.775757 -74.782242 2.648244
v 52.775757 72.865814 2.648244
v -50.776402 72.865814 2.648244
v -75.000000 -100.000000 8.000200
v -73.000198 -98.000198 10.000000
v 75.000000 -100.000000 8.000200
v 73.000198 -98.000198 10.000000
v -75.000000 100.000000 8.000200
v -73.000198 98.000198 10.000000
v 75.000000 100.000000 8.000200
v 73.000198 98.000198 10.000000
vt 0.103276 0.090041
vt 0.103276 0.020510
vt 0.313930 0.020510
vt 0.313930 0.090041
vt 0.103276 0.678354
vt 0.103276 0.608822
vt 0.313930 0.608822
vt 0.313930 0.678354
vt 0.383461 0.090041
vt 0.383461 0.608822
vt 0.033745 0.608822
vt 0.033745 0.090042
vt 0.477358 0.004225
vt 0.966889 0.004225
vt 0.966889 0.702213
vt 0.477358 0.702213
vt 0.041742 0.774601
vt 0.395114 0.774462
vt 0.382961 0.789251
vt 0.053927 0.789315
vt 0.461940 0.800510
vt 0.957220 0.800453
vt 0.942502 0.812634
vt 0.476729 0.812663
vt 0.395172 0.899970
vt 0.041860 0.900061
vt 0.054010 0.885274
vt 0.382991 0.885252
vt 0.957312 0.905152
vt 0.462079 0.905270
vt 0.476793 0.893085
vt 0.942524 0.893002
vt 0.358487 0.824282
vt 0.078402 0.824359
vt 0.907450 0.837101
vt 0.511760 0.837138
vt 0.078478 0.850248
vt 0.358524 0.850200
vt 0.511837 0.868610
vt 0.907498 0.868534
vt 0.353219 0.828326
vt 0.083715 0.828324
vt 0.903485 0.842412
vt 0.515804 0.842405
vt 0.083745 0.846204
vt 0.353212 0.846235
vt 0.515802 0.863297
vt 0.903454 0.863267
vt 0.443279 0.941306
vt 0.448603 0.930660
vt 0.975930 0.930487
vt 0.981250 0.941122
vt 0.019611 0.761052
vt 0.011046 0.750478
vt 0.420416 0.750331
vt 0.413210 0.761018
vt 0.448444 0.780498
vt 0.443128 0.769861
vt 0.981136 0.769842
vt 0.975848 0.780471
vt 0.011237 0.929317
vt 0.016654 0.924012
vt 0.415021 0.923900
vt 0.420443 0.929207
vt 0.420135 0.976989
vt 0.011593 0.977059
vt 0.011357 0.702696
vt 0.420054 0.702589
vt 0.443263 0.722092
vt 0.981018 0.722087
vt 0.981128 0.988891
vt 0.443409 0.989061
vt 0.017983 0.918712
vt 0.414840 0.918567
vn 0.000000 0.000000 1.000000
vn 0.000000 0.000000 1.000000
vn 0.000000 0.000000 1.000000
vn 0.000000 0.000000 1.000000
vn 0.000000 1.000000 0.000000
vn 0.000000 1.000000 0.000000
vn 0.000000 1.000000 0.000000
vn 0.000000 1.000000 0.000000
vn 0.000000 -1.000000 0.000000
vn 0.000000 -1.000000 0.000000
vn 0.000000 -1.000000 0.000000
vn 0.000000 -1.000000 0.000000
vn 1.000000 0.000000 0.000000
vn 1.000000 0.000000 0.000000
vn 1.000000 0.000000 0.000000
vn 1.000000 0.000000 0.000000
vn -1.000000 0.000000 0.000000
vn -1.000000 0.000000 0.000000
vn -1.000000 0.000000 0.000000
vn -1.000000 0.000000 0.000000
vn 0.000000 0.000000 1.000000
vn 0.000000 0.000000 1.000000
vn 0.000000 0.000000 1.000000
vn 0.000000 0.000000 1.000000
vn 0.000000 0.573242 0.819386
vn 0.000000 0.573242 0.819386
vn 0.000000 0.573242 0.819386
vn 0.000000 0.573242 0.819386
vn -0.706225 0.000000 0.707987
vn -0.706225 0.000000 0.707987
vn -0.706225 0.000000 0.707987
vn -0.706225 0.000000 0.707987
vn 0.000000 -0.573242 0.819386
vn 0.000000 -0.573242 0.819386
vn 0.000000 -0.573242 0.819386
vn 0.000000 -0.573242 0.819386
vn 0.706225 0.000000 0.707987
vn 0.706225 0.000000 0.707987
vn 0.706225 0.000000 0.707987
vn 0.706225 0.000000 0.707987
vn 0.000000 0.084769 0.996401
vn 0.000000 0.084769 0.996401
vn 0.000000 0.084769 0.996401
vn 0.000000 0.084769 0.996401
vn -0.120421 0.000000 0.992723
vn -0.120421 0.000000 0.992723
vn -0.120421 0.000000 0.992723
vn -0.120421 0.000000 0.992723
vn 0.000000 -0.084769 0.996401
vn 0.000000 -0.084769 0.996401
vn 0.000000 -0.084769 0.996401
vn 0.000000 -0.084769 0.996401
vn 0.120421 0.000000 0.992723
vn 0.120421 0.000000 0.992723
vn 0.120421 0.000000 0.992723
vn 0.120421 0.000000 0.992723
vn 0.000000 1.000000 0.000000
vn 0.000000 1.000000 0.000000
vn 0.000000 1.000000 0.000000
vn 0.000000 1.000000 0.000000
vn -1.000000 0.000000 0.000000
vn -1.000000 0.000000 0.000000
vn -1.000000 0.000000 0.000000
vn -1.000000 0.000000 0.000000
vn 0.000000 -1.000000 0.000000
vn 0.000000 -1.000000 0.000000
vn 0.000000 -1.000000 0.000000
vn 0.000000 -1.000000 0.000000
vn 1.000000 0.000000 0.000000
vn 1.000000 0.000000 0.000000
vn 1.000000 0.000000 0.000000
vn 1.000000 0.000000 0.000000
vn -0.707106 0.000000 0.707107
vn -0.707106 0.000000 0.707107
vn -0.707106 0.000000 0.707107
vn -0.707106 0.000000 0.707107
vn 0.000000 -0.707106 0.707108
vn 0.000000 -0.707106 0.707108
vn 0.000000 -0.707106 0.707108
vn 0.000000 -0.707106 0.707108
vn 0.707106 0.000000 0.707107
vn 0.707106 0.000000 0.707107
vn 0.707106 0.000000 0.707107
vn 0.707106 0.000000 0.707107
vn 0.000000 0.707106 0.707108
vn 0.000000 0.707106 0.707108
vn 0.000000 0.707106 0.707108
vn 0.000000 0.707106 0.707108
vn 0.000000 0.000000 1.000000
vn 0.000000 0.000000 1.000000
vn 0.000000 0.000000 1.000000
vn 0.000000 0.000000 1.000000
vn 0.000000 0.000000 1.000000
vn 0.000000 0.000000 1.000000
vn 0.000000 1.000000 0.000000
vn 0.000000 1.000000 0.000000
vn 0.000000 1.000000 0.000000
vn 0.000000 1.000000 0.000000
vn 0.000000 -1.000000 0.000000
vn 0.000000 -1.000000 0.000000
vn 0.000000 -1.000000 0.000000
vn 0.000000 -1.000000 0.000000
vn 1.000000 0.000000 0.000000
vn 1.000000 0.000000 0.000000
vn 1.000000 0.000000 0.000000
vn 1.000000 0.000000 0.000000
vn -1.000000 0.000000 0.000000
vn -1.000000 0.000000 0.000000
vn -1.000000 0.000000 0.000000
vn -1.000000 0.000000 0.000000
vn 0.000000 0.000000 1.000000
vn 0.000000 0.000000 1.000000
s off
g pCube7
usemtl texturedFacets11
f 1/6/1 2/1/2 4/4/3 3/7/4
f 3/7/5 4/4/6 6/9/7 5/10/8
f 7/11/9 8/12/10 2/1/11 1/6/12
f 2/1/13 8/2/14 6/3/15 4/4/16
f 7/5/17 1/6/18 3/7/19 5/8/20
usemtl lambert6SG
f 25/13/21 26/14/22 27/15/23 28/16/24
f 9/17/25 10/18/26 18/19/27 17/20/28
f 10/21/29 12/22/30 19/23/31 18/24/32
f 12/25/33 11/26/34 20/27/35 19/28/36
f 11/29/37 9/30/38 17/31/39 20/32/40
f 17/20/41 18/19/42 22/33/43 21/34/44
f 18/24/45 19/23/46 23/35/47 22/36/48
f 19/28/49 20/27/50 24/37/51 23/38/52
f 20/32/53 17/31/54 21/39/55 24/40/56
f 21/34/57 22/33/58 26/41/59 25/42/60
f 22/36/61 23/35/62 27/43/63 26/44/64
f 23/38/65 24/37/66 28/45/67 27/46/68
f 24/40/69 21/39/70 25/47/71 28/48/72
f 29/49/73 30/50/74 34/51/75 33/52/76
f 30/53/77 29/54/78 31/55/79 32/56/80
f 32/57/81 31/58/82 35/59/83 36/60/84
f 33/61/85 34/62/86 36/63/87 35/64/88
s 1
f 10/18/89 9/17/90 30/53/91 32/56/92
f 11/29/93 34/51/94 30/50/91 9/30/90
s off
f 14/65/95 13/66/96 33/61/97 35/64/98
f 31/55/99 29/54/100 15/67/101 16/68/102
f 35/59/103 31/58/104 16/69/105 14/70/106
f 29/49/107 33/52/108 13/71/109 15/72/110
s 1
f 34/73/94 11/26/93 12/25/111 36/74/112
f 36/60/112 12/22/111 10/21/89 32/57/92
